<svg width="112" height="112" viewBox="0 0 112 112" fill="none" xmlns="http://www.w3.org/2000/svg">
<path d="M56 112C86.9279 112 112 86.9279 112 56C112 25.0721 86.9279 0 56 0C25.0721 0 0 25.0721 0 56C0 86.9279 25.0721 112 56 112Z" fill="white"/>
<path fill-rule="evenodd" clip-rule="evenodd" d="M77.1618 51.3855C78.8301 52.05 80 53.5729 80 55.3418C80 56.383 79.5949 57.339 78.9214 58.0848C79.5949 58.8307 80 59.787 80 60.8282C80 62.4423 79.0255 63.8516 77.5873 64.5905V67.3676C77.5873 70.4083 75.1144 72.8824 72.0747 72.8824H40.9253C37.8856 72.8824 35.4127 70.4084 35.4127 67.3676V64.5905C33.9745 63.8516 33 62.4423 33 60.8282C33 59.787 33.4051 58.8307 34.0786 58.0849C33.4051 57.339 33 56.383 33 55.3418C33 53.5729 34.1701 52.0497 35.838 51.3855C35.5037 50.8629 35.4984 50.1696 35.8798 49.6327C40.5567 43.0487 48.2653 39.1177 56.5 39.1177C64.7342 39.1177 72.4425 43.0482 77.1199 49.6324C77.5016 50.1693 77.496 50.8632 77.1618 51.3855ZM75.2905 62.0025C76.1267 62.0025 76.8603 61.4536 76.8603 60.8282C76.8603 60.2024 76.1267 59.6537 75.2905 59.6535H58.5329L56.1822 62.0025H75.2905ZM48.8162 64.9262L43.5402 59.6535L54.0924 59.6538L48.8162 64.9262ZM36.1397 60.8282C36.1397 61.4536 36.8733 62.0025 37.7095 62.0025H41.4505L39.0999 59.6535H37.7095C36.8733 59.6535 36.1397 60.2024 36.1397 60.8282ZM37.7095 56.5162C36.8733 56.5162 36.1397 55.9676 36.1397 55.3418C36.1397 54.7161 36.8733 54.1672 37.7095 54.1672H75.2905C76.1267 54.1672 76.8603 54.7161 76.8603 55.3418C76.8603 55.9676 76.1267 56.5162 75.2905 56.5162H37.7095ZM74.2524 51.0297C70.137 45.5261 63.5416 42.2552 56.5002 42.2552C49.4582 42.2552 42.8627 45.5264 38.7475 51.0297H74.2524ZM40.9253 69.7449C39.6169 69.7449 38.5523 68.6787 38.5523 67.3676V65.14H44.5902L47.7063 68.2539C48.0129 68.5604 48.4146 68.7135 48.8164 68.7135C49.218 68.7135 49.6198 68.5603 49.9265 68.2539L53.0427 65.14H74.4478V67.3676C74.4477 68.6787 73.383 69.7449 72.0747 69.7449H40.9253ZM57.3332 48.5627C57.1134 48.7824 56.8103 48.9078 56.4995 48.9078C56.1901 48.9078 55.8873 48.7824 55.6674 48.5627C55.4476 48.3427 55.3222 48.0401 55.3222 47.7312C55.3222 47.4205 55.4476 47.1178 55.6674 46.8981C55.8873 46.6801 56.1901 46.5547 56.4995 46.5547C56.8103 46.5547 57.1134 46.6801 57.3332 46.8981C57.5514 47.1178 57.6771 47.4205 57.6771 47.7312C57.6771 48.0401 57.5514 48.3427 57.3332 48.5627ZM53.0413 45.325C53.3521 45.325 53.6552 45.1992 53.8732 44.9796C54.0932 44.7599 54.2187 44.4573 54.2187 44.1481C54.2187 43.8373 54.0932 43.5347 53.8732 43.315C53.6552 43.0969 53.3521 42.9715 53.0413 42.9715C52.7303 42.9715 52.4275 43.0969 52.2092 43.315C51.9894 43.5347 51.8638 43.8373 51.8638 44.1481C51.8638 44.4573 51.9894 44.7599 52.2092 44.9796C52.4275 45.1992 52.7303 45.325 53.0413 45.325ZM60.7916 44.9796C60.5718 45.1992 60.2687 45.325 59.9579 45.325C59.6485 45.325 59.3455 45.1992 59.1258 44.9796C58.906 44.7599 58.7804 44.4573 58.7804 44.1481C58.7804 43.8373 58.906 43.5347 59.1258 43.315C59.3456 43.0969 59.6487 42.9715 59.9579 42.9715C60.2687 42.9715 60.5718 43.0969 60.7916 43.315C61.0098 43.5347 61.137 43.8373 61.137 44.1481C61.137 44.4573 61.0098 44.7599 60.7916 44.9796ZM46.123 48.9078C46.4339 48.9078 46.7368 48.7824 46.9566 48.5627C47.1749 48.3427 47.3003 48.0401 47.3003 47.7312C47.3003 47.4205 47.1749 47.1178 46.9566 46.8981C46.7368 46.6801 46.4339 46.5547 46.123 46.5547C45.8138 46.5547 45.5109 46.6801 45.2909 46.8981C45.0712 47.1178 44.9454 47.4205 44.9454 47.7312C44.9454 48.0401 45.0712 48.3427 45.2909 48.5627C45.5109 48.7824 45.8138 48.9078 46.123 48.9078ZM67.7097 48.5627C67.4898 48.7824 67.1869 48.9078 66.8759 48.9078C66.5667 48.9078 66.2638 48.7824 66.044 48.5627C65.824 48.3446 65.6985 48.0401 65.6985 47.7312C65.6985 47.4205 65.824 47.1178 66.044 46.8981C66.2638 46.6801 66.5665 46.5547 66.8759 46.5547C67.1853 46.5547 67.4898 46.6801 67.7097 46.8981C67.9278 47.1178 68.0535 47.4205 68.0535 47.7312C68.0535 48.0401 67.9278 48.3427 67.7097 48.5627Z" fill="#555555"/>
</svg>
