<svg width="112" height="112" viewBox="0 0 112 112" fill="none" xmlns="http://www.w3.org/2000/svg">
<path d="M56 112C86.9279 112 112 86.9279 112 56C112 25.0721 86.9279 0 56 0C25.0721 0 0 25.0721 0 56C0 86.9279 25.0721 112 56 112Z" fill="white"/>
<path fill-rule="evenodd" clip-rule="evenodd" d="M56 33C63.3632 33 70.286 35.8247 75.4925 40.9538C75.9751 41.4291 76.0954 42.155 75.7917 42.7572L57.4222 79.1323C57.1537 79.6639 56.6029 80 56.0002 80C55.3974 80 54.8466 79.6639 54.5782 79.1323L36.2087 42.7572C35.9046 42.155 36.0249 41.4293 36.5075 40.9538C41.7141 35.8247 48.6366 33 56 33ZM72.4267 42.3946C67.9253 38.3458 62.1354 36.1291 56 36.1291C49.8646 36.1291 44.0747 38.3458 39.5735 42.3945L40.8024 44.8283C44.9981 41.1587 50.3422 39.1519 56.0002 39.1519C61.6578 39.1519 67.0019 41.1587 71.1978 44.8282L72.4267 42.3946ZM46.7171 56.3106C46.6729 56.2973 46.6286 56.2872 46.5843 56.2778L44.3088 51.7718C44.6007 50.8741 45.2233 50.136 46.0702 49.6928C46.9316 49.2411 47.9202 49.1477 48.8537 49.4285C49.7867 49.7092 50.5523 50.3313 51.0105 51.1798C51.4683 52.0285 51.5634 53.0022 51.2776 53.9218C50.9926 54.8409 50.3613 55.5954 49.5001 56.0468C48.6384 56.4979 47.65 56.5916 46.7171 56.3106ZM48.2537 59.5835L56 74.9229L59.9669 67.0679C59.7399 67.0929 59.5096 67.107 59.2758 67.107C55.8713 67.107 53.1017 64.3786 53.1017 61.0248C53.1017 57.671 55.8715 54.9427 59.2758 54.9427C61.5311 54.9427 63.507 56.1408 64.5844 57.9239L69.7239 47.7469C66.0222 44.2202 61.1627 42.281 56.0002 42.281C50.8374 42.281 45.9778 44.2203 42.2763 47.7471L42.6325 48.4522C43.1738 47.8397 43.8289 47.3227 44.5788 46.9299C46.1899 46.0861 48.0376 45.9109 49.7819 46.436C51.5263 46.9611 52.9586 48.1243 53.8151 49.7113C54.6712 51.2982 54.8487 53.1184 54.315 54.8368C53.7823 56.5548 52.6019 57.9659 50.9912 58.8096C50.1293 59.261 49.1992 59.5199 48.2537 59.5835ZM59.2758 63.9779C57.6228 63.9779 56.2782 62.6532 56.2782 61.0248C56.2782 59.3964 57.6228 58.0717 59.2758 58.0717C60.9289 58.0717 62.2736 59.3964 62.2736 61.0248C62.2736 62.6532 60.9289 63.9779 59.2758 63.9779ZM63.8617 51.618C63.4553 51.618 63.0489 51.4653 62.7386 51.1597L60.1181 48.5784C59.4978 47.9675 59.4978 46.9767 60.1181 46.3657C60.7383 45.755 61.7438 45.755 62.364 46.3657L64.9848 48.9472C65.6048 49.5581 65.6048 50.5489 64.9848 51.1597C64.6744 51.4651 64.2681 51.618 63.8617 51.618Z" fill="#555555"/>
</svg>
