<svg width="112" height="112" viewBox="0 0 112 112" fill="none" xmlns="http://www.w3.org/2000/svg">
<path d="M56 112C86.9279 112 112 86.9279 112 56C112 25.0721 86.9279 0 56 0C25.0721 0 0 25.0721 0 56C0 86.9279 25.0721 112 56 112Z" fill="white"/>
<path fill-rule="evenodd" clip-rule="evenodd" d="M62.1605 38.5913H77.2234C78.1579 38.5913 78.9156 39.3499 78.9153 40.2855C78.9153 41.2212 78.1576 41.9798 77.2231 41.9798H62.1602V47.7632C63.3584 47.2582 64.6733 46.978 66.0528 46.978C71.5588 46.978 76.0438 51.4248 76.1194 56.9189C76.4637 57.2289 76.6813 57.6772 76.6813 58.1771C76.6813 70.2104 66.9026 79.9998 54.883 79.9998C42.8631 79.9998 33.0844 70.2104 33.0844 58.1771C33.0844 57.6772 33.3021 57.2289 33.6464 56.9189C33.7218 51.4249 38.2072 46.978 43.7129 46.978C45.0928 46.978 46.4073 47.2595 47.6056 47.7651V41.9798H46.5055C45.571 41.9798 44.813 41.2212 44.813 40.2855C44.813 39.3499 45.571 38.5913 46.5055 38.5913H47.6056V36.3886H46.5055C45.571 36.3886 44.813 35.6299 44.813 34.6942C44.813 33.7586 45.571 33 46.5055 33H77.2234C78.1579 33 78.9156 33.7586 78.9156 34.6942C78.9156 35.6299 78.1579 36.3886 77.2234 36.3886H62.1605V38.5913ZM56.5754 38.5913H58.7758V36.3886H56.5754V38.5913ZM50.9906 36.3886H53.1907V38.5913H50.9906V36.3886ZM53.1905 46.0114V41.9798H50.9904V46.6107C51.6913 46.3368 52.4273 46.1329 53.1905 46.0114ZM65.6197 56.4831C65.6178 56.3399 65.6151 56.1966 65.6077 56.0548C65.7441 55.9938 65.8943 55.9578 66.0531 55.9578C66.4486 55.9578 66.795 56.1686 66.9889 56.4831H65.6197ZM59.5855 56.4831H62.2345C62.1564 52.49 58.8896 49.2653 54.8832 49.2655C50.8763 49.2655 47.6095 52.4901 47.5314 56.4831H50.18C50.2963 53.9867 52.3613 51.9915 54.883 51.9915C57.4048 51.9915 59.4691 53.9868 59.5855 56.4831ZM56.1864 56.4831H53.5797C53.6856 55.858 54.2289 55.3801 54.8832 55.3801C55.537 55.3801 56.0801 55.8578 56.1864 56.4831ZM42.7771 56.4831H44.1464C44.1484 56.3391 44.151 56.1955 44.1584 56.0533C44.0223 55.9925 43.8716 55.9578 43.7129 55.9578C43.3174 55.9578 42.9711 56.1686 42.7771 56.4831ZM43.7129 50.3666C44.4804 50.3666 45.2162 50.5011 45.9031 50.7408C45.4959 51.3612 45.1516 52.0258 44.8781 52.7264C44.5063 52.6257 44.1165 52.5691 43.7129 52.5691C41.4351 52.5691 39.5495 54.2785 39.2661 56.4829H37.0542C37.3472 53.0616 40.2207 50.3666 43.7129 50.3666ZM36.5464 59.8717C37.4038 69.2446 45.3005 76.6114 54.8832 76.6114C64.4656 76.6114 72.3622 69.2446 73.2196 59.8717H36.5464ZM72.7118 56.4831H70.5C70.2162 54.2785 68.3313 52.5692 66.0531 52.5692C65.6496 52.5692 65.2591 52.6237 64.887 52.7242C64.6132 52.0234 64.2689 51.3585 63.8614 50.7383C64.5484 50.4981 65.2854 50.3666 66.0531 50.3666C69.5453 50.3666 72.4187 53.0616 72.7118 56.4831ZM56.5754 46.0114C57.3386 46.1328 58.0746 46.3368 58.7758 46.6107V41.9798H56.5754V46.0114Z" fill="#555555"/>
</svg>
