<svg width="113" height="112" viewBox="0 0 113 112" fill="none" xmlns="http://www.w3.org/2000/svg">
<path d="M55.7475 13.1811C54.8943 13.1811 54.1578 13.0282 53.538 12.7223C52.9182 12.4164 52.4413 12.0019 52.1073 11.4787C51.7772 10.9515 51.6122 10.3639 51.6122 9.71591C51.6122 9.23295 51.7088 8.80433 51.902 8.43004C52.0952 8.05575 52.3648 7.71165 52.711 7.39773C53.0571 7.07978 53.4595 6.76385 53.9183 6.44993L56.315 4.87429C56.6249 4.67708 56.8523 4.46982 56.9972 4.25249C57.1421 4.03113 57.2145 3.79167 57.2145 3.53409C57.2145 3.28859 57.1159 3.0612 56.9187 2.85192C56.7215 2.64264 56.4418 2.54001 56.0796 2.54403C55.8381 2.54403 55.6288 2.59837 55.4517 2.70703C55.2746 2.81167 55.1358 2.95052 55.0352 3.12358C54.9386 3.29261 54.8903 3.48177 54.8903 3.69105C54.8903 3.94863 54.9627 4.21023 55.1076 4.47585C55.2525 4.74148 55.4457 5.0232 55.6872 5.32102C55.9286 5.61482 56.1923 5.93277 56.478 6.27486L62.3399 13H59.6595L54.7695 7.55469C54.4476 7.18845 54.1256 6.80611 53.8036 6.40767C53.4857 6.00521 53.2201 5.5786 53.0068 5.12784C52.7935 4.67306 52.6868 4.18004 52.6868 3.64879C52.6868 3.04912 52.8257 2.50982 53.1034 2.03089C53.3851 1.55196 53.7795 1.17365 54.2866 0.895951C54.7937 0.614228 55.3853 0.473366 56.0615 0.473366C56.7215 0.473366 57.291 0.608191 57.7699 0.877841C58.2529 1.14347 58.6231 1.49763 58.8807 1.94034C59.1423 2.37902 59.2731 2.86198 59.2731 3.3892C59.2731 3.97277 59.1282 4.50201 58.8384 4.97692C58.5527 5.4478 58.1502 5.87038 57.6311 6.24467L55.1076 8.06179C54.7655 8.31132 54.512 8.56688 54.347 8.82848C54.186 9.08606 54.1055 9.33357 54.1055 9.57102C54.1055 9.86482 54.1779 10.1284 54.3228 10.3619C54.4677 10.5953 54.673 10.7804 54.9386 10.9173C55.2042 11.0501 55.5161 11.1165 55.8743 11.1165C56.309 11.1165 56.7376 11.0179 57.1602 10.8207C57.5868 10.6194 57.9731 10.3357 58.3193 9.96946C58.6694 9.5992 58.9491 9.16051 59.1584 8.65341C59.3677 8.14631 59.4723 7.58487 59.4723 6.9691H61.6034C61.6034 7.72573 61.5209 8.40791 61.3558 9.01563C61.1908 9.61932 60.9614 10.1465 60.6676 10.5973C60.3738 11.044 60.0378 11.4103 59.6595 11.696C59.5387 11.7725 59.422 11.8449 59.3093 11.9134C59.1966 11.9818 59.0799 12.0542 58.9592 12.1307C58.5004 12.5009 57.9872 12.7686 57.4198 12.9336C56.8563 13.0986 56.2989 13.1811 55.7475 13.1811Z" fill="black"/>
<path d="M75.6594 11.5888L76.7475 9.51584L74.4278 9.91704L74.2683 8.28646L76.6105 8.20586L75.1032 6.41136L76.4217 5.43885L77.6757 7.43117L78.4881 5.23547L79.9716 5.89599L78.878 7.96645L81.1977 7.56526L81.3572 9.19583L79.0205 9.27889L80.5223 11.0709L79.2038 12.0434L77.9498 10.0511L77.1429 12.2493L75.6594 11.5888Z" fill="black"/>
<path d="M85.1331 23.6111L91.9539 12.7093L93.8646 14.8313L88.85 22.1004L88.9186 22.1766L96.8134 18.1063L98.4494 19.9233L93.5587 27.357L93.6314 27.4377L101.398 23.1983L103.309 25.3203L91.7538 30.9642L90.0492 29.071L94.4809 21.9124L94.4163 21.8406L86.8378 25.5044L85.1331 23.6111Z" fill="black"/>
<path d="M109.681 40.5553L97.9226 44.3759L97.1149 41.8898L108.873 38.0693L109.681 40.5553Z" fill="black"/>
<path d="M111.025 67.4363L98.7292 66.1439L98.9653 63.8985L107.266 59.3624L107.276 59.2724L99.537 58.459L99.8102 55.8593L112.106 57.1517L111.866 59.4331L103.576 63.9278L103.564 64.0358L111.297 64.8486L111.025 67.4363Z" fill="black"/>
<path d="M95.6634 74.47L106.371 80.6519L102.205 87.8667L100.339 86.7891L103.197 81.8381L100.646 80.365L98.0017 84.9449L96.1352 83.8673L98.7794 79.2875L96.2229 77.8114L93.3523 82.7834L91.4859 81.7058L95.6634 74.47Z" fill="black"/>
<path d="M85.5681 95.0279L86.8192 97.0067L87.6316 94.7972L89.1235 95.4744L88.0222 97.543L90.33 97.1349L90.5129 98.763L88.1605 98.8529L89.6559 100.654L88.3421 101.609L87.0958 99.6264L86.2834 101.836L84.7915 101.159L85.8879 99.0937L83.5851 99.4983L83.4021 97.8702L85.7545 97.7803L84.2543 95.9825L85.5681 95.0279Z" fill="black"/>
<path d="M67.2442 103.554L67.5823 105.87L69.2231 104.182L70.3106 105.408L68.4631 106.85L70.7374 107.415L70.2423 108.977L68.0567 108.103L68.6901 110.356L67.1016 110.694L66.7694 108.376L65.1286 110.064L64.0411 108.839L65.8827 107.398L63.6143 106.831L64.1094 105.269L66.295 106.144L65.6557 103.891L67.2442 103.554Z" fill="black"/>
<path d="M46.7363 103.826L46.103 106.08L48.2886 105.205L48.7836 106.767L46.5094 107.332L48.3569 108.774L47.2694 110L45.6285 108.312L45.2904 110.628L43.702 110.291L44.3412 108.038L42.1556 108.913L41.6606 107.351L43.9289 106.784L42.0873 105.343L43.1748 104.118L44.8157 105.806L45.1479 103.488L46.7363 103.826Z" fill="black"/>
<path d="M28.8394 97.9691L28.2061 100.223L30.3917 99.3482L30.8867 100.91L28.6125 101.476L30.46 102.918L29.3725 104.143L27.7316 102.455L27.3935 104.772L25.8051 104.434L26.4443 102.181L24.2587 103.056L23.7637 101.494L26.032 100.927L24.1904 99.4867L25.2779 98.2613L26.9188 99.9493L27.251 97.6315L28.8394 97.9691Z" fill="black"/>
<path d="M10.2999 79.5341C10.0877 79.7542 9.92228 79.9868 9.80356 80.2319C9.68136 80.479 9.60764 80.7377 9.58238 81.0079C9.55163 81.2766 9.57009 81.5541 9.63776 81.8403C9.70341 82.1231 9.82076 82.4108 9.98979 82.7036C10.3057 83.2508 10.7194 83.6533 11.2307 83.9111C11.74 84.1654 12.3207 84.2577 12.9729 84.1879C13.6215 84.1201 14.3188 83.8709 15.0647 83.4403C15.8106 83.0096 16.3795 82.5301 16.7715 82.0017C17.1635 81.4733 17.3775 80.9223 17.4134 80.3485C17.4458 79.7768 17.299 79.2086 16.973 78.644C16.6772 78.1316 16.334 77.7465 15.9435 77.4887C15.5474 77.2294 15.1268 77.1004 14.6815 77.1019C14.2342 77.0999 13.7823 77.2307 13.3257 77.4943L13.128 76.995L14.7218 79.7555L13.0174 80.7395L10.4306 76.259L11.7794 75.4802C12.7205 74.9369 13.6438 74.6687 14.5494 74.6757C15.4515 74.6846 16.2868 74.932 17.0552 75.4178C17.8201 75.9056 18.4622 76.5991 18.9814 77.4984C19.5609 78.5022 19.8487 79.5118 19.8447 80.5271C19.8373 81.5445 19.5468 82.5023 18.9732 83.4004C18.3941 84.2971 17.54 85.0714 16.4107 85.7234C15.5428 86.2244 14.6966 86.5457 13.8721 86.6871C13.042 86.8271 12.2582 86.8056 11.5206 86.6227C10.7829 86.4398 10.1153 86.1166 9.5177 85.653C8.92009 85.1894 8.41704 84.6038 8.00854 83.8963C7.6584 83.2898 7.42128 82.6739 7.29719 82.0484C7.16962 81.425 7.14945 80.8185 7.23668 80.2291C7.3219 79.6362 7.51137 79.083 7.80511 78.5695C8.09536 78.058 8.48425 77.6127 8.97178 77.2337L10.2999 79.5341Z" fill="black"/>
<path d="M13.8707 65.1804L1.5748 66.4727L1.06492 61.6216C0.967325 60.693 1.05014 59.8831 1.31336 59.1917C1.57215 58.4968 1.98566 57.9455 2.55387 57.5377C3.11765 57.1264 3.80581 56.878 4.61833 56.7926C5.43486 56.7068 6.15582 56.8091 6.78122 57.0995C7.40261 57.3903 7.90454 57.8535 8.28699 58.4891C8.66903 59.1207 8.90969 59.9088 9.00897 60.8534L9.35036 64.1015L7.26101 64.3211L6.9638 61.4933C6.91163 60.997 6.80026 60.5919 6.62968 60.278C6.45909 59.9641 6.2293 59.7414 5.9403 59.6099C5.65087 59.4744 5.30403 59.4279 4.89977 59.4704C4.49151 59.5133 4.15591 59.6315 3.89298 59.8251C3.62963 60.0146 3.44336 60.2831 3.33419 60.6304C3.22059 60.9742 3.19008 61.3962 3.24267 61.8966L3.42693 63.6497L13.5975 62.5807L13.8707 65.1804ZM7.57719 59.1282L12.8516 55.4842L13.1532 58.354L7.87188 61.9321L7.57719 59.1282Z" fill="black"/>
<path d="M4.29442 36.6334L5.10219 34.1473L12.7383 36.6285C13.5957 36.907 14.2794 37.3556 14.7894 37.9741C15.3006 38.5887 15.6173 39.3201 15.7396 40.168C15.858 41.0148 15.7593 41.9243 15.4434 42.8965C15.1263 43.8725 14.6709 44.6683 14.0774 45.2837C13.4801 45.8979 12.794 46.3034 12.0191 46.5001C11.2442 46.6969 10.4281 46.656 9.57069 46.3775L1.93455 43.8963L2.74232 41.4103L10.166 43.8224C10.6139 43.9679 11.0437 43.9996 11.4554 43.9176C11.8684 43.8317 12.2328 43.6412 12.5488 43.3461C12.8647 43.051 13.1004 42.6642 13.2559 42.1857C13.4126 41.7034 13.4493 41.252 13.3659 40.8313C13.2838 40.4069 13.1002 40.0404 12.8154 39.7321C12.5317 39.4199 12.166 39.191 11.7181 39.0455L4.29442 36.6334Z" fill="black"/>
<path d="M21.4204 30.4388L12.2324 22.1659L15.5448 18.4872C16.1534 17.8112 16.7612 17.3377 17.3683 17.0665C17.9753 16.7953 18.5591 16.7063 19.1197 16.7994C19.6773 16.8899 20.1864 17.1425 20.647 17.5572C21.0059 17.8804 21.2568 18.2363 21.3997 18.6249C21.5396 19.0108 21.5832 19.4075 21.5305 19.8149C21.4774 20.2167 21.3427 20.6099 21.1263 20.9945L21.2161 21.0753C21.5461 20.7388 21.9397 20.5002 22.3968 20.3594C22.8566 20.2156 23.3372 20.1961 23.8386 20.301C24.3369 20.4031 24.8119 20.6575 25.2635 21.0641C25.7511 21.5031 26.0772 22.016 26.2419 22.603C26.4063 23.1843 26.3877 23.8093 26.1863 24.4782C25.9848 25.147 25.5743 25.8254 24.955 26.5133L21.4204 30.4388ZM21.5813 27.0663L23.0073 25.4826C23.4947 24.9413 23.747 24.4536 23.7642 24.0195C23.7783 23.5827 23.6119 23.2082 23.265 22.8958C23.0108 22.6669 22.7312 22.5262 22.4264 22.4738C22.1216 22.4214 21.8115 22.459 21.4962 22.5867C21.1835 22.7113 20.8872 22.9292 20.6071 23.2403L19.1408 24.8688L21.5813 27.0663ZM17.8263 23.6852L19.123 22.2451C19.3627 21.9789 19.529 21.7009 19.6221 21.4111C19.7149 21.1155 19.7285 20.8298 19.6627 20.554C19.5997 20.2752 19.447 20.0267 19.2047 19.8086C18.8727 19.5097 18.4987 19.3868 18.0826 19.4399C17.6691 19.4901 17.2685 19.7305 16.8807 20.1612L15.5517 21.6372L17.8263 23.6852Z" fill="black"/>
<path d="M35.847 12.1207L35.0347 9.92503L33.7806 11.9174L32.4621 10.9448L33.9694 9.15034L31.6273 9.06973L31.7868 7.43916L34.1065 7.84036L33.0184 5.76743L34.5019 5.10692L35.3088 7.30507L36.5628 5.31275L37.8813 6.28526L36.3795 8.07731L38.7161 8.16037L38.5566 9.79094L36.2369 9.38975L37.3306 11.4602L35.847 12.1207Z" fill="black"/>
</svg>
